<?xml version="1.0" encoding="UTF-8" standalone="no"?>
<svg width="18px" height="25px" viewBox="0 0 18 25" version="1.1" xmlns="http://www.w3.org/2000/svg" xmlns:xlink="http://www.w3.org/1999/xlink" xmlns:sketch="http://www.bohemiancoding.com/sketch/ns">
    <!-- Generator: Sketch 3.5.1 (25234) - http://www.bohemiancoding.com/sketch -->
    <title>location-fill copy 2</title>
    <desc>Created with Sketch.</desc>
    <defs></defs>
    <g id="Global-Header-Your-Store" stroke="none" stroke-width="1" fill="none" fill-rule="evenodd" sketch:type="MSPage">
        <g id="header–geo-off" sketch:type="MSArtboardGroup" transform="translate(-710.000000, -60.000000)" fill="#666666">
            <g id="Your-Store-1" sketch:type="MSLayerGroup" transform="translate(710.000000, 60.000000)">
                <g id="location-fill-copy-2" sketch:type="MSShapeGroup">
                    <path d="M8.87784091,0.357142857 C3.9747362,0.357142857 0,4.26339286 0,9.84375 C0,15.4241071 8.87804383,24.6892248 8.87804383,24.6892248 C8.87804383,24.6892248 17.7556818,15.4156859 17.7556818,9.81838474 C17.7556818,4.2210836 13.7808442,0.357142857 8.87784091,0.357142857 L8.87784091,0.357142857 Z M8.87784091,13.9389205 C6.19510958,13.9389205 4.01247971,11.7562906 4.01247971,9.07355925 C4.01247971,6.39082792 6.19510958,4.20819805 8.87784091,4.20819805 C11.5605722,4.20819805 13.7432021,6.39082792 13.7432021,9.07355925 C13.7432021,11.7562906 11.5605722,13.9389205 8.87784091,13.9389205 L8.87784091,13.9389205 Z" id="location-fill"></path>
                </g>
            </g>
        </g>
    </g>
</svg>